<?xml version='1.0' encoding='utf-8'?>
<svg xmlns="http://www.w3.org/2000/svg" xmlns:cc="http://creativecommons.org/ns#" xmlns:dc="http://purl.org/dc/elements/1.1/" xmlns:rdf="http://www.w3.org/1999/02/22-rdf-syntax-ns#" width="159mm" height="58mm" viewBox="0 0 450.708661 164.409449" version="1.1">
 <metadata>
  <rdf:RDF>
   <cc:Work>
    <dc:type rdf:resource="http://purl.org/dc/dcmitype/StillImage" />
    <dc:format>image/svg+xml</dc:format>
    <dc:creator>
     <cc:Agent>
      <dc:title>Python/matplotlib; ECRC Figure 1</dc:title>
     </cc:Agent>
    </dc:creator>
   </cc:Work>
  </rdf:RDF>
 </metadata>
 <defs>
  <style type="text/css">*{stroke-linejoin: round; stroke-linecap: butt}</style>
 </defs>
 <g id="figure_1">
  <g id="patch_1">
   <path d="M 0 164.409449  L 450.708661 164.409449  L 450.708661 0  L 0 0  z " style="fill: #ffffff" />
  </g>
  <g id="axes_1">
   <g id="patch_2">
    <path d="M 12.188976 156.472441  L 438.519685 156.472441  Q 442.771654 156.472441 442.771654 152.220472  L 442.771654 12.188976  Q 442.771654 7.937008 438.519685 7.937008  L 12.188976 7.937008  Q 7.937008 7.937008 7.937008 12.188976  L 7.937008 152.220472  Q 7.937008 156.472441 12.188976 156.472441  z " clip-path="url(#p88e35c9077)" style="fill: #ffffff; stroke-dasharray: 2.88,1.8; stroke-dashoffset: 0; stroke: #7891a5; stroke-width: 0.72; stroke-linejoin: miter" />
   </g>
   <g id="line2d_1">
    <path d="M 15.307087 99.212598  L 435.968504 99.212598  " clip-path="url(#p88e35c9077)" style="fill: none; stroke-dasharray: 1.74,1.334; stroke-dashoffset: 0; stroke: #7891a5; stroke-width: 0.58" />
   </g>
   <g id="line2d_2">
    <path d="M 17.574803 24.661417  L 94.677165 24.661417  " clip-path="url(#p88e35c9077)" style="fill: none; stroke: #5b7fa2; stroke-width: 0.75; stroke-linecap: round" />
   </g>
   <g id="line2d_3">
    <path d="M 107.716535 24.661417  L 216.283465 24.661417  " clip-path="url(#p88e35c9077)" style="fill: none; stroke: #4f8878; stroke-width: 0.75; stroke-linecap: round" />
   </g>
   <g id="line2d_4">
    <path d="M 229.322835 24.661417  L 332.503937 24.661417  " clip-path="url(#p88e35c9077)" style="fill: none; stroke: #aa7b36; stroke-width: 0.75; stroke-linecap: round" />
   </g>
   <g id="line2d_5">
    <path d="M 345.543307 24.661417  L 433.700787 24.661417  " clip-path="url(#p88e35c9077)" style="fill: none; stroke: #7b688d; stroke-width: 0.75; stroke-linecap: round" />
   </g>
   <g id="patch_3">
    <path d="M 18.141732 85.03937  L 94.110236 85.03937  Q 96.944882 85.03937 96.944882 82.204724  L 96.944882 34.015748  Q 96.944882 31.181102 94.110236 31.181102  L 18.141732 31.181102  Q 15.307087 31.181102 15.307087 34.015748  L 15.307087 82.204724  Q 15.307087 85.03937 18.141732 85.03937  z " clip-path="url(#p88e35c9077)" style="fill: #eaf2f8; stroke: #5b7fa2; stroke-width: 0.78; stroke-linejoin: miter" />
   </g>
   <g id="patch_4">
    <path d="M 108.283465 85.03937  L 215.716535 85.03937  Q 218.551181 85.03937 218.551181 82.204724  L 218.551181 34.015748  Q 218.551181 31.181102 215.716535 31.181102  L 108.283465 31.181102  Q 105.448819 31.181102 105.448819 34.015748  L 105.448819 82.204724  Q 105.448819 85.03937 108.283465 85.03937  z " clip-path="url(#p88e35c9077)" style="fill: #e8f2ee; stroke: #4f8878; stroke-width: 0.78; stroke-linejoin: miter" />
   </g>
   <g id="patch_5">
    <path d="M 229.889764 85.03937  L 331.937008 85.03937  Q 334.771654 85.03937 334.771654 82.204724  L 334.771654 34.015748  Q 334.771654 31.181102 331.937008 31.181102  L 229.889764 31.181102  Q 227.055118 31.181102 227.055118 34.015748  L 227.055118 82.204724  Q 227.055118 85.03937 229.889764 85.03937  z " clip-path="url(#p88e35c9077)" style="fill: #f8f0df; stroke: #aa7b36; stroke-width: 0.78; stroke-linejoin: miter" />
   </g>
   <g id="patch_6">
    <path d="M 346.110236 85.03937  L 433.133858 85.03937  Q 435.968504 85.03937 435.968504 82.204724  L 435.968504 34.015748  Q 435.968504 31.181102 433.133858 31.181102  L 346.110236 31.181102  Q 343.275591 31.181102 343.275591 34.015748  L 343.275591 82.204724  Q 343.275591 85.03937 346.110236 85.03937  z " clip-path="url(#p88e35c9077)" style="fill: #f0ecf5; stroke: #7b688d; stroke-width: 0.78; stroke-linejoin: miter" />
   </g>
   <g id="patch_7">
    <path d="M 18.708661 144.566929  L 79.370079 144.566929  Q 81.637795 144.566929 81.637795 142.299213  L 81.637795 121.322835  Q 81.637795 119.055118 79.370079 119.055118  L 18.708661 119.055118  Q 16.440945 119.055118 16.440945 121.322835  L 16.440945 142.299213  Q 16.440945 144.566929 18.708661 144.566929  z " clip-path="url(#p88e35c9077)" style="fill: #eaf2f8; stroke: #5b7fa2; stroke-width: 0.65; stroke-linejoin: miter" />
   </g>
   <g id="patch_8">
    <path d="M 99.496063 144.566929  L 160.15748 144.566929  Q 162.425197 144.566929 162.425197 142.299213  L 162.425197 121.322835  Q 162.425197 119.055118 160.15748 119.055118  L 99.496063 119.055118  Q 97.228346 119.055118 97.228346 121.322835  L 97.228346 142.299213  Q 97.228346 144.566929 99.496063 144.566929  z " clip-path="url(#p88e35c9077)" style="fill: #e8f2ee; stroke: #4f8878; stroke-width: 0.65; stroke-linejoin: miter" />
   </g>
   <g id="patch_9">
    <path d="M 180.283465 144.566929  L 235.275591 144.566929  Q 237.543307 144.566929 237.543307 142.299213  L 237.543307 121.322835  Q 237.543307 119.055118 235.275591 119.055118  L 180.283465 119.055118  Q 178.015748 119.055118 178.015748 121.322835  L 178.015748 142.299213  Q 178.015748 144.566929 180.283465 144.566929  z " clip-path="url(#p88e35c9077)" style="fill: #f8f0df; stroke: #aa7b36; stroke-width: 0.65; stroke-linejoin: miter" />
   </g>
   <g id="patch_10">
    <path d="M 257.385827 144.566929  L 354.897638 144.566929  Q 357.165354 144.566929 357.165354 142.299213  L 357.165354 121.322835  Q 357.165354 119.055118 354.897638 119.055118  L 257.385827 119.055118  Q 255.11811 119.055118 255.11811 121.322835  L 255.11811 142.299213  Q 255.11811 144.566929 257.385827 144.566929  z " clip-path="url(#p88e35c9077)" style="fill: #f0ecf5; stroke: #7b688d; stroke-width: 0.65; stroke-linejoin: miter" />
   </g>
   <g id="patch_11">
    <path d="M 379.275591 144.566929  L 431.433071 144.566929  Q 433.700787 144.566929 433.700787 142.299213  L 433.700787 121.322835  Q 433.700787 119.055118 431.433071 119.055118  L 379.275591 119.055118  Q 377.007874 119.055118 377.007874 121.322835  L 377.007874 142.299213  Q 377.007874 144.566929 379.275591 144.566929  z " clip-path="url(#p88e35c9077)" style="fill: #fafbfc; stroke: #5e788d; stroke-width: 0.65; stroke-linejoin: miter" />
   </g>
   <g id="patch_12">
    <path d="M 175.748031 102.330709  L 274.96063 102.330709  L 274.96063 96.094488  L 175.748031 96.094488  z " clip-path="url(#p88e35c9077)" style="fill: #ffffff" />
   </g>
   <g id="text_1">
    <text style="font-weight: 600; font-size: 7.7px; font-family: 'Calibri', 'Arial', 'Helvetica', 'DejaVu Sans', 'Liberation Sans', sans-serif; text-anchor: start; fill: #5b7fa2" x="17.574803" y="21.210216" transform="rotate(-0 17.574803 21.210216)">a  Proposal</text>
   </g>
   <g id="text_2">
    <text style="font-weight: 600; font-size: 7.7px; font-family: 'Calibri', 'Arial', 'Helvetica', 'DejaVu Sans', 'Liberation Sans', sans-serif; text-anchor: start; fill: #4f8878" x="107.716535" y="21.206005" transform="rotate(-0 107.716535 21.206005)">b  Adjudicate</text>
   </g>
   <g id="text_3">
    <text style="font-weight: 600; font-size: 7.7px; font-family: 'Calibri', 'Arial', 'Helvetica', 'DejaVu Sans', 'Liberation Sans', sans-serif; text-anchor: start; fill: #aa7b36" x="229.322835" y="21.210216" transform="rotate(-0 229.322835 21.210216)">c  Permit</text>
   </g>
   <g id="text_4">
    <text style="font-weight: 600; font-size: 7.7px; font-family: 'Calibri', 'Arial', 'Helvetica', 'DejaVu Sans', 'Liberation Sans', sans-serif; text-anchor: start; fill: #7b688d" x="345.543307" y="21.210216" transform="rotate(-0 345.543307 21.210216)">d  Receipt</text>
   </g>
   <g id="patch_13">
    <path d="M 98.220472 58.110236  Q 101.055118 58.110236 103.084779 58.110236  " clip-path="url(#p88e35c9077)" style="fill: none; stroke: #5e788d; stroke-width: 0.72; stroke-linecap: round" />
    <path d="M 100.444779 56.790236  L 103.084779 58.110236  L 100.444779 59.430236  z " clip-path="url(#p88e35c9077)" style="fill: #5e788d; stroke: #5e788d; stroke-width: 0.72; stroke-linecap: round" />
   </g>
   <g id="patch_14">
    <path d="M 219.826772 58.110236  Q 222.661417 58.110236 224.691079 58.110236  " clip-path="url(#p88e35c9077)" style="fill: none; stroke: #5e788d; stroke-width: 0.72; stroke-linecap: round" />
    <path d="M 222.051079 56.790236  L 224.691079 58.110236  L 222.051079 59.430236  z " clip-path="url(#p88e35c9077)" style="fill: #5e788d; stroke: #5e788d; stroke-width: 0.72; stroke-linecap: round" />
   </g>
   <g id="patch_15">
    <path d="M 336.047244 58.110236  Q 338.88189 58.110236 340.911551 58.110236  " clip-path="url(#p88e35c9077)" style="fill: none; stroke: #5e788d; stroke-width: 0.72; stroke-linecap: round" />
    <path d="M 338.271551 56.790236  L 340.911551 58.110236  L 338.271551 59.430236  z " clip-path="url(#p88e35c9077)" style="fill: #5e788d; stroke: #5e788d; stroke-width: 0.72; stroke-linecap: round" />
   </g>
   <g id="patch_16">
    <path d="M 115.795276 79.937008  L 154.629921 79.937008  Q 156.472441 79.937008 156.472441 78.094488  L 156.472441 70.440945  Q 156.472441 68.598425 154.629921 68.598425  L 115.795276 68.598425  Q 113.952756 68.598425 113.952756 70.440945  L 113.952756 78.094488  Q 113.952756 79.937008 115.795276 79.937008  z " clip-path="url(#p88e35c9077)" style="fill: #f4f8f6; stroke: #4f8878; stroke-width: 0.62; stroke-linejoin: miter" />
   </g>
   <g id="patch_17">
    <path d="M 169.370079 79.937008  L 208.204724 79.937008  Q 210.047244 79.937008 210.047244 78.094488  L 210.047244 70.440945  Q 210.047244 68.598425 208.204724 68.598425  L 169.370079 68.598425  Q 167.527559 68.598425 167.527559 70.440945  L 167.527559 78.094488  Q 167.527559 79.937008 169.370079 79.937008  z " clip-path="url(#p88e35c9077)" style="fill: #f4f8f6; stroke: #4f8878; stroke-width: 0.62; stroke-linejoin: miter" />
   </g>
   <g id="patch_18">
    <path d="M 236.976378 82.488189  L 324.850394 82.488189  Q 326.551181 82.488189 326.551181 80.787402  L 326.551181 66.047244  Q 326.551181 64.346457 324.850394 64.346457  L 236.976378 64.346457  Q 235.275591 64.346457 235.275591 66.047244  L 235.275591 80.787402  Q 235.275591 82.488189 236.976378 82.488189  z " clip-path="url(#p88e35c9077)" style="fill: #fcf8ef; stroke: #aa7b36; stroke-width: 0.62; stroke-linejoin: miter" />
   </g>
   <g id="patch_19">
    <path d="M 83.19685 131.811024  Q 89.291339 131.811024 94.692646 131.811024  " clip-path="url(#p88e35c9077)" style="fill: none; stroke: #5e788d; stroke-width: 0.62; stroke-linecap: round" />
    <path d="M 92.372646 130.651024  L 94.692646 131.811024  L 92.372646 132.971024  z " clip-path="url(#p88e35c9077)" style="fill: #5e788d; stroke: #5e788d; stroke-width: 0.62; stroke-linecap: round" />
   </g>
   <g id="patch_20">
    <path d="M 163.984252 131.811024  Q 170.07874 131.811024 175.480047 131.811024  " clip-path="url(#p88e35c9077)" style="fill: none; stroke: #5e788d; stroke-width: 0.62; stroke-linecap: round" />
    <path d="M 173.160047 130.651024  L 175.480047 131.811024  L 173.160047 132.971024  z " clip-path="url(#p88e35c9077)" style="fill: #5e788d; stroke: #5e788d; stroke-width: 0.62; stroke-linecap: round" />
   </g>
   <g id="patch_21">
    <path d="M 239.102362 131.811024  Q 246.188976 131.811024 252.582409 131.811024  " clip-path="url(#p88e35c9077)" style="fill: none; stroke: #5e788d; stroke-width: 0.62; stroke-linecap: round" />
    <path d="M 250.262409 130.651024  L 252.582409 131.811024  L 250.262409 132.971024  z " clip-path="url(#p88e35c9077)" style="fill: #5e788d; stroke: #5e788d; stroke-width: 0.62; stroke-linecap: round" />
   </g>
   <g id="patch_22">
    <path d="M 358.724409 131.811024  Q 366.944882 131.811024 374.472173 131.811024  " clip-path="url(#p88e35c9077)" style="fill: none; stroke: #5e788d; stroke-width: 0.62; stroke-linecap: round" />
    <path d="M 372.152173 130.651024  L 374.472173 131.811024  L 372.152173 132.971024  z " clip-path="url(#p88e35c9077)" style="fill: #5e788d; stroke: #5e788d; stroke-width: 0.62; stroke-linecap: round" />
   </g>
   <g id="text_5">
    <text style="font-weight: 600; font-size: 8.2px; font-family: 'Calibri', 'Arial', 'Helvetica', 'DejaVu Sans', 'Liberation Sans', sans-serif; text-anchor: middle; fill: #26323b" x="56.125984" y="47.98151" transform="rotate(-0 56.125984 47.98151)">Frozen AI output</text>
   </g>
   <g id="text_6">
    <text style="font-size: 7.5px; font-family: 'Calibri', 'Arial', 'Helvetica', 'DejaVu Sans', 'Liberation Sans', sans-serif; text-anchor: middle; fill: #53616d" x="56.125984" y="69.915285" transform="rotate(-0 56.125984 69.915285)">score + context</text>
   </g>
   <g id="text_7">
    <text style="font-weight: 600; font-size: 8.2px; font-family: 'Calibri', 'Arial', 'Helvetica', 'DejaVu Sans', 'Liberation Sans', sans-serif; text-anchor: middle; fill: #26323b" x="162" y="44.570966" transform="rotate(-0 162 44.570966)">ECRC gate</text>
   </g>
   <g id="text_8">
    <text style="font-size: 7.5px; font-family: 'Calibri', 'Arial', 'Helvetica', 'DejaVu Sans', 'Liberation Sans', sans-serif; text-anchor: middle; fill: #53616d" x="162" y="55.742057" transform="rotate(-0 162 55.742057)">policy + decision-time evidence</text>
   </g>
   <g id="text_9">
    <text style="font-size: 7.5px; font-family: 'Calibri', 'Arial', 'Helvetica', 'DejaVu Sans', 'Liberation Sans', sans-serif; text-anchor: middle; fill: #4f8878" x="162" y="65.946781" transform="rotate(-0 162 65.946781)">reserve first</text>
   </g>
   <g id="text_10">
    <text style="font-size: 7.5px; font-family: 'Calibri', 'Arial', 'Helvetica', 'DejaVu Sans', 'Liberation Sans', sans-serif; text-anchor: middle; fill: #26323b" x="135.212598" y="76.151506" transform="rotate(-0 135.212598 76.151506)">Alert pool</text>
   </g>
   <g id="text_11">
    <text style="font-size: 7.5px; font-family: 'Calibri', 'Arial', 'Helvetica', 'DejaVu Sans', 'Liberation Sans', sans-serif; text-anchor: middle; fill: #26323b" x="188.787402" y="76.151506" transform="rotate(-0 188.787402 76.151506)">Review pool</text>
   </g>
   <g id="text_12">
    <text style="font-weight: 600; font-size: 8.2px; font-family: 'Calibri', 'Arial', 'Helvetica', 'DejaVu Sans', 'Liberation Sans', sans-serif; text-anchor: middle; fill: #26323b" x="280.913386" y="45.997258" transform="rotate(-0 280.913386 45.997258)">Decision permit</text>
   </g>
   <g id="text_13">
    <text style="font-size: 7.5px; font-family: 'Calibri', 'Arial', 'Helvetica', 'DejaVu Sans', 'Liberation Sans', sans-serif; fill: #53616d" transform="translate(259.40655 55.381925)">route + claims</text>
    <text style="font-size: 7.5px; font-family: 'Calibri', 'Arial', 'Helvetica', 'DejaVu Sans', 'Liberation Sans', sans-serif; fill: #53616d" transform="translate(248.146589 61.20455)">action: reservation ID</text>
   </g>
   <g id="text_14">
    <text style="font-size: 7.5px; font-family: 'Calibri', 'Arial', 'Helvetica', 'DejaVu Sans', 'Liberation Sans', sans-serif; fill: #26323b" transform="translate(259.808503 72.185753)">Alert · Review</text>
    <text style="font-size: 7.5px; font-family: 'Calibri', 'Arial', 'Helvetica', 'DejaVu Sans', 'Liberation Sans', sans-serif; fill: #26323b" transform="translate(252.087019 78.416471)">Abstain · No action</text>
   </g>
   <g id="text_15">
    <text style="font-weight: 600; font-size: 8.1px; font-family: 'Calibri', 'Arial', 'Helvetica', 'DejaVu Sans', 'Liberation Sans', sans-serif; text-anchor: middle; fill: #26323b" x="389.622047" y="46.255597" transform="rotate(-0 389.622047 46.255597)">Enforce</text>
   </g>
   <g id="text_16">
    <text style="font-size: 7.5px; font-family: 'Calibri', 'Arial', 'Helvetica', 'DejaVu Sans', 'Liberation Sans', sans-serif; text-anchor: middle; fill: #53616d" x="389.622047" y="59.994025" transform="rotate(-0 389.622047 59.994025)">receipt</text>
   </g>
   <g id="text_17">
    <text style="font-size: 7.5px; font-family: 'Calibri', 'Arial', 'Helvetica', 'DejaVu Sans', 'Liberation Sans', sans-serif; text-anchor: middle; fill: #7b688d" x="389.622047" y="75.868041" transform="rotate(-0 389.622047 75.868041)">commit or release</text>
   </g>
   <g id="text_18">
    <text style="font-weight: 600; font-size: 7.5px; font-family: 'Calibri', 'Arial', 'Helvetica', 'DejaVu Sans', 'Liberation Sans', sans-serif; text-anchor: middle; fill: #5e788d" x="225.354331" y="101.096973" transform="rotate(-0 225.354331 101.096973)">ACTION-PERMIT TRACE</text>
   </g>
   <g id="text_19">
    <text style="font-size: 7.5px; font-family: 'Calibri', 'Arial', 'Helvetica', 'DejaVu Sans', 'Liberation Sans', sans-serif; fill: #26323b" transform="translate(36.60812 130.349901)">Request</text>
    <text style="font-size: 7.5px; font-family: 'Calibri', 'Arial', 'Helvetica', 'DejaVu Sans', 'Liberation Sans', sans-serif; fill: #26323b" transform="translate(39.1798 137.039725)">bound</text>
   </g>
   <g id="text_20">
    <text style="font-size: 7.5px; font-family: 'Calibri', 'Arial', 'Helvetica', 'DejaVu Sans', 'Liberation Sans', sans-serif; fill: #26323b" transform="translate(116.86349 130.349901)">Capacity</text>
    <text style="font-size: 7.5px; font-family: 'Calibri', 'Arial', 'Helvetica', 'DejaVu Sans', 'Liberation Sans', sans-serif; fill: #26323b" transform="translate(116.484389 137.039725)">reserved</text>
   </g>
   <g id="text_21">
    <text style="font-size: 7.5px; font-family: 'Calibri', 'Arial', 'Helvetica', 'DejaVu Sans', 'Liberation Sans', sans-serif; fill: #26323b" transform="translate(197.556676 130.349901)">Permit</text>
    <text style="font-size: 7.5px; font-family: 'Calibri', 'Arial', 'Helvetica', 'DejaVu Sans', 'Liberation Sans', sans-serif; fill: #26323b" transform="translate(198.178942 137.039725)">issued</text>
   </g>
   <g id="text_22">
    <text style="font-size: 7.5px; font-family: 'Calibri', 'Arial', 'Helvetica', 'DejaVu Sans', 'Liberation Sans', sans-serif; fill: #26323b" transform="translate(278.588607 130.349901)">Receipt + capacity</text>
    <text style="font-size: 7.5px; font-family: 'Calibri', 'Arial', 'Helvetica', 'DejaVu Sans', 'Liberation Sans', sans-serif; fill: #26323b" transform="translate(282.236068 137.039725)">one transaction</text>
   </g>
   <g id="text_23">
    <text style="font-size: 7.5px; font-family: 'Calibri', 'Arial', 'Helvetica', 'DejaVu Sans', 'Liberation Sans', sans-serif; fill: #26323b" transform="translate(398.187729 130.349901)">Next</text>
    <text style="font-size: 7.5px; font-family: 'Calibri', 'Arial', 'Helvetica', 'DejaVu Sans', 'Liberation Sans', sans-serif; fill: #26323b" transform="translate(397.71312 137.039725)">state</text>
   </g>
  </g>
 </g>
 <defs>
  <clipPath id="p88e35c9077">
   <rect x="0" y="0" width="450.708661" height="164.409449" />
  </clipPath>
 </defs>
</svg>