<?xml version="1.0" encoding="utf-8" standalone="no"?>
<!DOCTYPE svg PUBLIC "-//W3C//DTD SVG 1.1//EN"
  "http://www.w3.org/Graphics/SVG/1.1/DTD/svg11.dtd">
<svg xmlns:xlink="http://www.w3.org/1999/xlink" width="468pt" height="190.8pt" viewBox="0 0 468 190.8" xmlns="http://www.w3.org/2000/svg" version="1.1">
 <metadata>
  <rdf:RDF xmlns:dc="http://purl.org/dc/elements/1.1/" xmlns:cc="http://creativecommons.org/ns#" xmlns:rdf="http://www.w3.org/1999/02/22-rdf-syntax-ns#">
   <cc:Work>
    <dc:type rdf:resource="http://purl.org/dc/dcmitype/StillImage"/>
    <dc:format>image/svg+xml</dc:format>
    <dc:creator>
     <cc:Agent>
      <dc:title>Matplotlib v3.10.9, https://matplotlib.org/</dc:title>
     </cc:Agent>
    </dc:creator>
   </cc:Work>
  </rdf:RDF>
 </metadata>
 <defs>
  <style type="text/css">*{stroke-linejoin: round; stroke-linecap: butt}</style>
 </defs>
 <g id="figure_1">
  <g id="patch_1">
   <path d="M 0 190.8 
L 468 190.8 
L 468 0 
L 0 0 
z
" style="fill: #ffffff"/>
  </g>
  <g id="axes_1">
   <g id="patch_2">
    <path d="M 5.04 185.76 
L 462.96 185.76 
L 462.96 5.04 
L 5.04 5.04 
z
" clip-path="url(#pb73aff636e)" style="fill: #ffffff; stroke-dasharray: 3.2,2.4; stroke-dashoffset: 0; stroke: #677078; stroke-width: 0.8; stroke-linejoin: miter"/>
   </g>
   <g id="patch_3">
    <path d="M 14.4 81.36 
L 110.16 81.36 
L 110.16 38.16 
L 14.4 38.16 
z
" clip-path="url(#pb73aff636e)" style="fill: #ffffff; stroke: #923e2c; stroke-width: 0.8; stroke-linejoin: miter"/>
   </g>
   <g id="patch_4">
    <path d="M 128.88 81.36 
L 224.64 81.36 
L 224.64 38.16 
L 128.88 38.16 
z
" clip-path="url(#pb73aff636e)" style="fill: #ffffff; stroke: #923e2c; stroke-width: 0.8; stroke-linejoin: miter"/>
   </g>
   <g id="patch_5">
    <path d="M 243.36 81.36 
L 339.12 81.36 
L 339.12 38.16 
L 243.36 38.16 
z
" clip-path="url(#pb73aff636e)" style="fill: #ffffff; stroke: #923e2c; stroke-width: 0.8; stroke-linejoin: miter"/>
   </g>
   <g id="patch_6">
    <path d="M 357.84 81.36 
L 453.6 81.36 
L 453.6 38.16 
L 357.84 38.16 
z
" clip-path="url(#pb73aff636e)" style="fill: #ffffff; stroke: #923e2c; stroke-width: 0.8; stroke-linejoin: miter"/>
   </g>
   <g id="patch_7">
    <path d="M 111.96 59.76 
Q 119.34 59.76 125.657868 59.76 
" clip-path="url(#pb73aff636e)" style="fill: none; stroke: #923e2c; stroke-width: 0.95; stroke-linecap: round"/>
    <path d="M 122.057868 57.96 
L 125.657868 59.76 
L 122.057868 61.56 
z
" clip-path="url(#pb73aff636e)" style="fill: #923e2c; stroke: #923e2c; stroke-width: 0.95; stroke-linecap: round"/>
   </g>
   <g id="patch_8">
    <path d="M 226.44 59.76 
Q 233.82 59.76 240.137868 59.76 
" clip-path="url(#pb73aff636e)" style="fill: none; stroke: #923e2c; stroke-width: 0.95; stroke-linecap: round"/>
    <path d="M 236.537868 57.96 
L 240.137868 59.76 
L 236.537868 61.56 
z
" clip-path="url(#pb73aff636e)" style="fill: #923e2c; stroke: #923e2c; stroke-width: 0.95; stroke-linecap: round"/>
   </g>
   <g id="patch_9">
    <path d="M 340.92 59.76 
Q 348.3 59.76 354.617868 59.76 
" clip-path="url(#pb73aff636e)" style="fill: none; stroke: #923e2c; stroke-width: 0.95; stroke-linecap: round"/>
    <path d="M 351.017868 57.96 
L 354.617868 59.76 
L 351.017868 61.56 
z
" clip-path="url(#pb73aff636e)" style="fill: #923e2c; stroke: #923e2c; stroke-width: 0.95; stroke-linecap: round"/>
   </g>
   <g id="patch_10">
    <path d="M 14.4 166.32 
L 110.16 166.32 
L 110.16 123.12 
L 14.4 123.12 
z
" clip-path="url(#pb73aff636e)" style="fill: #ffffff; stroke: #176b70; stroke-width: 0.8; stroke-linejoin: miter"/>
   </g>
   <g id="patch_11">
    <path d="M 128.88 166.32 
L 224.64 166.32 
L 224.64 123.12 
L 128.88 123.12 
z
" clip-path="url(#pb73aff636e)" style="fill: #ffffff; stroke: #176b70; stroke-width: 0.8; stroke-linejoin: miter"/>
   </g>
   <g id="patch_12">
    <path d="M 243.36 166.32 
L 339.12 166.32 
L 339.12 123.12 
L 243.36 123.12 
z
" clip-path="url(#pb73aff636e)" style="fill: #ffffff; stroke: #176b70; stroke-width: 0.8; stroke-linejoin: miter"/>
   </g>
   <g id="patch_13">
    <path d="M 357.84 166.32 
L 453.6 166.32 
L 453.6 123.12 
L 357.84 123.12 
z
" clip-path="url(#pb73aff636e)" style="fill: #ffffff; stroke: #176b70; stroke-width: 0.8; stroke-linejoin: miter"/>
   </g>
   <g id="patch_14">
    <path d="M 111.96 144.72 
Q 119.34 144.72 125.657868 144.72 
" clip-path="url(#pb73aff636e)" style="fill: none; stroke: #176b70; stroke-width: 0.95; stroke-linecap: round"/>
    <path d="M 122.057868 142.92 
L 125.657868 144.72 
L 122.057868 146.52 
z
" clip-path="url(#pb73aff636e)" style="fill: #176b70; stroke: #176b70; stroke-width: 0.95; stroke-linecap: round"/>
   </g>
   <g id="patch_15">
    <path d="M 226.44 144.72 
Q 233.82 144.72 240.137868 144.72 
" clip-path="url(#pb73aff636e)" style="fill: none; stroke: #176b70; stroke-width: 0.95; stroke-linecap: round"/>
    <path d="M 236.537868 142.92 
L 240.137868 144.72 
L 236.537868 146.52 
z
" clip-path="url(#pb73aff636e)" style="fill: #176b70; stroke: #176b70; stroke-width: 0.95; stroke-linecap: round"/>
   </g>
   <g id="patch_16">
    <path d="M 340.92 144.72 
Q 348.3 144.72 354.617868 144.72 
" clip-path="url(#pb73aff636e)" style="fill: none; stroke: #176b70; stroke-width: 0.95; stroke-linecap: round"/>
    <path d="M 351.017868 142.92 
L 354.617868 144.72 
L 351.017868 146.52 
z
" clip-path="url(#pb73aff636e)" style="fill: #176b70; stroke: #176b70; stroke-width: 0.95; stroke-linecap: round"/>
   </g>
   <g id="text_1">
    <text style="font-weight: 700; font-size: 10px; font-family: 'DejaVu Sans'; text-anchor: start; fill: #923e2c" x="14.4" y="23.639375" transform="rotate(-0 14.4 23.639375)">(a) Release on timeout</text>
   </g>
   <g id="text_2">
    <text style="font-weight: 700; font-size: 9.1px; font-family: 'DejaVu Sans'; text-anchor: middle; fill: #923e2c" x="62.28" y="52.911031" transform="rotate(-0 62.28 52.911031)">Unknown A</text>
   </g>
   <g id="text_3">
    <text style="font-size: 8.8px; font-family: 'DejaVu Sans'; text-anchor: middle; fill: #263640" x="62.28" y="72.26825" transform="rotate(-0 62.28 72.26825)">1 held / 1 effect</text>
   </g>
   <g id="text_4">
    <text style="font-weight: 700; font-size: 9.1px; font-family: 'DejaVu Sans'; text-anchor: middle; fill: #923e2c" x="176.76" y="52.911031" transform="rotate(-0 176.76 52.911031)">Release unit</text>
   </g>
   <g id="text_5">
    <text style="font-size: 8.8px; font-family: 'DejaVu Sans'; text-anchor: middle; fill: #263640" x="176.76" y="72.26825" transform="rotate(-0 176.76 72.26825)">0 held / 1 effect</text>
   </g>
   <g id="text_6">
    <text style="font-weight: 700; font-size: 9.1px; font-family: 'DejaVu Sans'; text-anchor: middle; fill: #923e2c" x="291.24" y="52.911031" transform="rotate(-0 291.24 52.911031)">Admit B</text>
   </g>
   <g id="text_7">
    <text style="font-size: 8.8px; font-family: 'DejaVu Sans'; text-anchor: middle; fill: #263640" x="291.24" y="72.26825" transform="rotate(-0 291.24 72.26825)">One more effect</text>
   </g>
   <g id="text_8">
    <text style="font-weight: 700; font-size: 9.1px; font-family: 'DejaVu Sans'; text-anchor: middle; fill: #923e2c" x="405.72" y="52.875484" transform="rotate(-0 405.72 52.875484)">Budget exceeded</text>
   </g>
   <g id="text_9">
    <text style="font-size: 8.8px; font-family: 'DejaVu Sans'; text-anchor: middle; fill: #263640" x="405.72" y="72.26825" transform="rotate(-0 405.72 72.26825)">2 effects / 1 unit</text>
   </g>
   <g id="text_10">
    <text style="font-weight: 700; font-size: 10px; font-family: 'DejaVu Sans'; text-anchor: start; fill: #176b70" x="14.4" y="108.599375" transform="rotate(-0 14.4 108.599375)">(b) Retain until reconciled</text>
   </g>
   <g id="text_11">
    <text style="font-weight: 700; font-size: 9.1px; font-family: 'DejaVu Sans'; text-anchor: middle; fill: #176b70" x="62.28" y="137.871031" transform="rotate(-0 62.28 137.871031)">Unknown A</text>
   </g>
   <g id="text_12">
    <text style="font-size: 8.8px; font-family: 'DejaVu Sans'; text-anchor: middle; fill: #263640" x="62.28" y="157.22825" transform="rotate(-0 62.28 157.22825)">1 held / 1 effect</text>
   </g>
   <g id="text_13">
    <text style="font-weight: 700; font-size: 9.1px; font-family: 'DejaVu Sans'; text-anchor: middle; fill: #176b70" x="176.76" y="137.871031" transform="rotate(-0 176.76 137.871031)">Retain unit</text>
   </g>
   <g id="text_14">
    <text style="font-size: 8.8px; font-family: 'DejaVu Sans'; text-anchor: middle; fill: #263640" x="176.76" y="157.22825" transform="rotate(-0 176.76 157.22825)">B not admitted</text>
   </g>
   <g id="text_15">
    <text style="font-weight: 700; font-size: 9.1px; font-family: 'DejaVu Sans'; text-anchor: middle; fill: #176b70" x="291.24" y="137.871031" transform="rotate(-0 291.24 137.871031)">Reconcile A</text>
   </g>
   <g id="text_16">
    <text style="font-size: 8.8px; font-family: 'DejaVu Sans'; text-anchor: middle; fill: #263640" x="291.24" y="157.22825" transform="rotate(-0 291.24 157.22825)">Held → committed</text>
   </g>
   <g id="text_17">
    <text style="font-weight: 700; font-size: 9.1px; font-family: 'DejaVu Sans'; text-anchor: middle; fill: #176b70" x="405.72" y="137.835484" transform="rotate(-0 405.72 137.835484)">Budget preserved</text>
   </g>
   <g id="text_18">
    <text style="font-size: 8.8px; font-family: 'DejaVu Sans'; text-anchor: middle; fill: #263640" x="405.72" y="157.22825" transform="rotate(-0 405.72 157.22825)">1 effect / 1 unit</text>
   </g>
  </g>
 </g>
 <defs>
  <clipPath id="pb73aff636e">
   <rect x="0" y="0" width="468" height="190.8"/>
  </clipPath>
 </defs>
</svg>
